<svg width="24" height="25" viewBox="0 0 24 25" fill="none" xmlns="http://www.w3.org/2000/svg">
<mask id="mask0_403_11319" style="mask-type:alpha" maskUnits="userSpaceOnUse" x="0" y="0" width="24" height="25">
<rect width="24" height="24" transform="matrix(-1 0 0 1 24 0.989014)" fill="#D9D9D9"/>
</mask>
<g mask="url(#mask0_403_11319)">
<path d="M13.125 20.289L19.725 13.689C19.825 13.589 19.896 13.4807 19.938 13.364C19.9793 13.2474 20 13.1224 20 12.989C20 12.8557 19.9793 12.7307 19.938 12.614C19.896 12.4974 19.825 12.389 19.725 12.289L13.125 5.68903C12.9417 5.5057 12.7127 5.4097 12.438 5.40104C12.1627 5.39304 11.925 5.48903 11.725 5.68903C11.525 5.87237 11.4207 6.10137 11.412 6.37604C11.404 6.65137 11.5 6.88903 11.7 7.08904L16.6 11.989H5.425C5.14167 11.989 4.904 12.0847 4.712 12.276C4.52067 12.468 4.425 12.7057 4.425 12.989C4.425 13.2724 4.52067 13.5097 4.712 13.701C4.904 13.893 5.14167 13.989 5.425 13.989H16.6L11.7 18.889C11.5167 19.0724 11.4207 19.3057 11.412 19.589C11.404 19.8724 11.5 20.1057 11.7 20.289C11.8833 20.489 12.1167 20.589 12.4 20.589C12.6833 20.589 12.925 20.489 13.125 20.289Z" fill="#2194FF"/>
</g>
</svg>
