<svg width="24" height="25" viewBox="0 0 24 25" fill="none" xmlns="http://www.w3.org/2000/svg">
<path d="M15 4.73901V8.84076L12.75 10.1765V7.90326L11.625 8.60601L9 10.1765V7.90326L7.875 8.60601L4.125 10.856L3.75 11.0668V21.239H20.25V4.73901H15ZM16.5 6.23901H18.75V19.739H5.25V11.8873L7.5 10.5515V12.8248L8.625 12.122L11.25 10.5515V12.8248L12.375 12.122L16.125 9.87201L16.5 9.66126V6.23901ZM6.75 13.739V15.239H8.25V13.739H6.75ZM9.75 13.739V15.239H11.25V13.739H9.75ZM12.75 13.739V15.239H14.25V13.739H12.75ZM15.75 13.739V15.239H17.25V13.739H15.75ZM6.75 16.739V18.239H8.25V16.739H6.75ZM9.75 16.739V18.239H11.25V16.739H9.75ZM12.75 16.739V18.239H14.25V16.739H12.75ZM15.75 16.739V18.239H17.25V16.739H15.75Z" fill="#344054"/>
</svg>
