<svg width="24" height="25" viewBox="0 0 24 25" fill="none" xmlns="http://www.w3.org/2000/svg">
<g clip-path="url(#clip0_448_15532)">
<path d="M12.9345 3.86702L20.1155 7.66302C21.1815 8.22602 21.1815 9.75302 20.1155 10.315L18.8415 10.989L20.1155 11.663C21.1815 12.226 21.1815 13.753 20.1155 14.315L18.8415 14.989L20.1155 15.663C21.1815 16.226 21.1815 17.753 20.1155 18.315L12.9345 22.111C12.6464 22.2634 12.3254 22.343 11.9995 22.343C11.6736 22.343 11.3526 22.2634 11.0645 22.111L3.88348 18.315C2.81748 17.752 2.81748 16.226 3.88348 15.663L5.15848 14.989L3.88348 14.315C2.81748 13.752 2.81748 12.226 3.88348 11.663L5.15848 10.989L3.88348 10.315C2.81748 9.75202 2.81748 8.22602 3.88348 7.66302L11.0645 3.86702C11.3526 3.71466 11.6736 3.63501 11.9995 3.63501C12.3254 3.63501 12.6464 3.71466 12.9345 3.86702ZM16.7015 16.12L12.9345 18.111C12.6464 18.2634 12.3254 18.343 11.9995 18.343C11.6736 18.343 11.3526 18.2634 11.0645 18.111L7.29748 16.121L5.65448 16.989L11.9995 20.343L18.3455 16.989L16.7015 16.12ZM16.7015 12.12L12.9345 14.112C12.6732 14.25 12.3847 14.3284 12.0895 14.3415C11.7944 14.3546 11.5 14.3022 11.2275 14.188L11.0645 14.112L7.29748 12.12L5.65448 12.99L11.9995 16.342L18.3455 12.989L16.7015 12.12ZM11.9995 5.63502L5.65448 8.98902L11.9995 12.343L18.3455 8.98902L11.9995 5.63502Z" fill="#344054"/>
</g>
<defs>
<clipPath id="clip0_448_15532">
<rect width="24" height="24" fill="white" transform="translate(0 0.989014)"/>
</clipPath>
</defs>
</svg>
