<svg width="24" height="25" viewBox="0 0 24 25" fill="none" xmlns="http://www.w3.org/2000/svg">
<path d="M12 11.989C13.3261 11.989 14.5979 12.5158 15.5355 13.4535C16.4732 14.3912 17 15.6629 17 16.989V22.989H15V16.989C15 16.2238 14.7077 15.4875 14.1827 14.9308C13.6578 14.374 12.9399 14.0389 12.176 13.994L12 13.989C11.2348 13.989 10.4985 14.2813 9.94174 14.8063C9.38499 15.3313 9.04989 16.0491 9.005 16.813L9 16.989V22.989H7V16.989C7 15.6629 7.52678 14.3912 8.46447 13.4535C9.40215 12.5158 10.6739 11.989 12 11.989ZM5.5 14.989C5.779 14.989 6.05 15.022 6.31 15.083C6.13904 15.592 6.03778 16.1218 6.009 16.658L6 16.989V17.075C5.88505 17.0339 5.76549 17.007 5.644 16.995L5.5 16.989C5.12727 16.989 4.7679 17.1278 4.49189 17.3783C4.21589 17.6288 4.04303 17.973 4.007 18.344L4 18.489V22.989H2V18.489C2 17.5608 2.36875 16.6705 3.02513 16.0141C3.6815 15.3578 4.57174 14.989 5.5 14.989ZM18.5 14.989C19.4283 14.989 20.3185 15.3578 20.9749 16.0141C21.6313 16.6705 22 17.5608 22 18.489V22.989H20V18.489C20 18.1163 19.8612 17.7569 19.6108 17.4809C19.3603 17.2049 19.016 17.032 18.645 16.996L18.5 16.989C18.325 16.989 18.157 17.019 18 17.074V16.989C18 16.323 17.892 15.683 17.692 15.085C17.95 15.022 18.222 14.989 18.5 14.989ZM5.5 8.98901C6.16304 8.98901 6.79893 9.25241 7.26777 9.72125C7.73661 10.1901 8 10.826 8 11.489C8 12.1521 7.73661 12.7879 7.26777 13.2568C6.79893 13.7256 6.16304 13.989 5.5 13.989C4.83696 13.989 4.20107 13.7256 3.73223 13.2568C3.26339 12.7879 3 12.1521 3 11.489C3 10.826 3.26339 10.1901 3.73223 9.72125C4.20107 9.25241 4.83696 8.98901 5.5 8.98901ZM18.5 8.98901C19.163 8.98901 19.7989 9.25241 20.2678 9.72125C20.7366 10.1901 21 10.826 21 11.489C21 12.1521 20.7366 12.7879 20.2678 13.2568C19.7989 13.7256 19.163 13.989 18.5 13.989C17.837 13.989 17.2011 13.7256 16.7322 13.2568C16.2634 12.7879 16 12.1521 16 11.489C16 10.826 16.2634 10.1901 16.7322 9.72125C17.2011 9.25241 17.837 8.98901 18.5 8.98901ZM5.5 10.989C5.36739 10.989 5.24021 11.0417 5.14645 11.1355C5.05268 11.2292 5 11.3564 5 11.489C5 11.6216 5.05268 11.7488 5.14645 11.8426C5.24021 11.9363 5.36739 11.989 5.5 11.989C5.63261 11.989 5.75979 11.9363 5.85355 11.8426C5.94732 11.7488 6 11.6216 6 11.489C6 11.3564 5.94732 11.2292 5.85355 11.1355C5.75979 11.0417 5.63261 10.989 5.5 10.989ZM18.5 10.989C18.3674 10.989 18.2402 11.0417 18.1464 11.1355C18.0527 11.2292 18 11.3564 18 11.489C18 11.6216 18.0527 11.7488 18.1464 11.8426C18.2402 11.9363 18.3674 11.989 18.5 11.989C18.6326 11.989 18.7598 11.9363 18.8536 11.8426C18.9473 11.7488 19 11.6216 19 11.489C19 11.3564 18.9473 11.2292 18.8536 11.1355C18.7598 11.0417 18.6326 10.989 18.5 10.989ZM12 2.98901C13.0609 2.98901 14.0783 3.41044 14.8284 4.16059C15.5786 4.91073 16 5.92815 16 6.98901C16 8.04988 15.5786 9.0673 14.8284 9.81744C14.0783 10.5676 13.0609 10.989 12 10.989C10.9391 10.989 9.92172 10.5676 9.17157 9.81744C8.42143 9.0673 8 8.04988 8 6.98901C8 5.92815 8.42143 4.91073 9.17157 4.16059C9.92172 3.41044 10.9391 2.98901 12 2.98901ZM12 4.98901C11.4696 4.98901 10.9609 5.19973 10.5858 5.5748C10.2107 5.94987 10 6.45858 10 6.98901C10 7.51945 10.2107 8.02815 10.5858 8.40323C10.9609 8.7783 11.4696 8.98901 12 8.98901C12.5304 8.98901 13.0391 8.7783 13.4142 8.40323C13.7893 8.02815 14 7.51945 14 6.98901C14 6.45858 13.7893 5.94987 13.4142 5.5748C13.0391 5.19973 12.5304 4.98901 12 4.98901Z" fill="#344054"/>
</svg>
